<?xml version="1.0" standalone="no"?>
<!DOCTYPE svg PUBLIC "-//W3C//DTD SVG 20010904//EN"
 "http://www.w3.org/TR/2001/REC-SVG-20010904/DTD/svg10.dtd">
<svg version="1.0" xmlns="http://www.w3.org/2000/svg"
 width="512.000000pt" height="512.000000pt" viewBox="0 0 512.000000 512.000000"
 preserveAspectRatio="xMidYMid meet">

<g transform="translate(0.000000,512.000000) scale(0.100000,-0.100000)"
fill="#000000" stroke="none">
<path d="M1725 3793 c-11 -3 -28 -12 -37 -21 -17 -14 -18 -78 -18 -1076 0
-1140 0 -1122 51 -1156 17 -11 50 -14 136 -14 105 1 118 3 170 30 39 20 70 46
95 79 21 28 129 213 239 413 111 199 203 361 205 360 1 -2 91 -162 199 -357
107 -194 209 -372 225 -396 68 -99 136 -129 290 -129 123 1 143 10 164 70 14
43 16 157 16 1104 l0 1057 -21 19 c-19 17 -37 19 -195 17 -202 -3 -238 -13
-293 -82 -18 -23 -111 -182 -206 -354 -95 -172 -177 -312 -181 -311 -5 0 -84
136 -175 302 -92 166 -183 324 -203 351 -57 77 -90 89 -281 95 -88 3 -169 2
-180 -1z m550 -858 c63 -115 115 -211 115 -213 0 -3 -32 -64 -72 -136 -101
-185 -196 -364 -257 -483 -29 -57 -54 -103 -57 -103 -2 0 -4 326 -4 725 l0
726 80 -154 c44 -85 131 -248 195 -362z m853 -572 l-3 -368 -89 170 c-49 94
-136 255 -193 358 -56 104 -103 193 -103 198 0 5 60 119 134 252 74 133 160
295 192 360 l59 118 3 -360 c1 -198 1 -525 0 -728z"/>
</g>
</svg>
